<?xml version="1.0" encoding="utf-8"?>
<!-- Generator: Adobe Illustrator 18.0.0, SVG Export Plug-In . SVG Version: 6.00 Build 0)  -->
<!DOCTYPE svg PUBLIC "-//W3C//DTD SVG 1.1//EN" "http://www.w3.org/Graphics/SVG/1.1/DTD/svg11.dtd">
<svg version="1.1" id="Layer_1" xmlns="http://www.w3.org/2000/svg" xmlns:xlink="http://www.w3.org/1999/xlink" x="0px" y="0px"
	 viewBox="0 0 612 792" enable-background="new 0 0 612 792" xml:space="preserve">
<g>
	<path fill="#FFFFFF" d="M592.8,354.7c0,5.9-2.1,10.9-6.3,15.1c-4.2,4.2-9.1,6.3-14.9,6.3c-5.9,0-10.9-2.1-15.1-6.3
		c-4.2-4.2-6.3-9.2-6.3-15.1c0-5.9,2.1-10.9,6.3-15.1c4.2-4.2,9.2-6.3,15.1-6.3c5.8,0,10.7,2.1,14.9,6.3
		C590.7,343.8,592.8,348.9,592.8,354.7z M581.5,354.7c0-2.7-1-5-2.9-7c-2-1.9-4.3-2.9-7-2.9c-2.9,0-5.3,1-7.1,2.9
		c-1.9,1.9-2.8,4.3-2.8,7c0,2.7,0.9,5,2.8,7c1.9,1.9,4.3,2.9,7.1,2.9c2.7,0,5.1-1,7-2.9C580.5,359.8,581.5,357.5,581.5,354.7z"/>
	<g>
		<path fill="#FFFFFF" d="M39.9,437.6l-20.3-59.4h17.1l12.5,40.6h0.2L62,378.2h16.2l-20.1,59.4H39.9z"/>
		<path fill="#FFFFFF" d="M82.6,387c1.7-2.5,3.8-4.6,6.4-6.1c2.6-1.5,5.5-2.6,8.8-3.3c3.3-0.7,6.5-1,9.8-1c3,0,6,0.2,9.1,0.6
			c3.1,0.4,5.9,1.2,8.4,2.5c2.5,1.2,4.6,2.9,6.2,5.1c1.6,2.2,2.4,5.1,2.4,8.7v30.9c0,2.7,0.2,5.2,0.5,7.7c0.3,2.5,0.8,4.3,1.6,5.5
			h-16.5c-0.3-0.9-0.6-1.9-0.7-2.8c-0.2-1-0.3-1.9-0.4-2.9c-2.6,2.7-5.7,4.6-9.2,5.6c-3.5,1.1-7.1,1.6-10.8,1.6
			c-2.8,0-5.5-0.3-7.9-1c-2.5-0.7-4.6-1.8-6.4-3.2c-1.8-1.5-3.3-3.3-4.3-5.5c-1-2.2-1.6-4.9-1.6-7.9c0-3.4,0.6-6.1,1.8-8.3
			c1.2-2.2,2.7-3.9,4.6-5.2c1.9-1.3,4-2.3,6.4-2.9c2.4-0.6,4.8-1.2,7.3-1.6c2.5-0.4,4.9-0.7,7.2-0.9c2.4-0.2,4.5-0.6,6.3-1
			c1.8-0.5,3.3-1.1,4.4-2c1.1-0.9,1.6-2.2,1.5-3.8c0-1.8-0.3-3.2-0.9-4.2c-0.6-1-1.3-1.8-2.3-2.4c-1-0.6-2.1-1-3.3-1.1
			c-1.3-0.2-2.6-0.3-4.1-0.3c-3.2,0-5.7,0.7-7.6,2.1c-1.8,1.4-2.9,3.7-3.2,6.9H79.7C79.9,392.7,80.9,389.5,82.6,387z M114.8,410
			c-1,0.3-2.1,0.6-3.3,0.9c-1.2,0.2-2.4,0.4-3.7,0.6c-1.3,0.2-2.6,0.3-3.9,0.6c-1.2,0.2-2.4,0.5-3.6,0.9c-1.2,0.4-2.2,0.9-3.1,1.6
			c-0.9,0.7-1.6,1.5-2.1,2.5c-0.5,1-0.8,2.3-0.8,3.8c0,1.5,0.3,2.7,0.8,3.7c0.5,1,1.3,1.8,2.2,2.4c0.9,0.6,2,1,3.2,1.2
			c1.2,0.2,2.5,0.3,3.8,0.3c3.2,0,5.7-0.5,7.5-1.6c1.8-1.1,3.1-2.4,3.9-3.8c0.8-1.5,1.4-3,1.6-4.5c0.2-1.5,0.3-2.8,0.3-3.7v-6.1
			C116.7,409.2,115.8,409.7,114.8,410z"/>
		<path fill="#FFFFFF" d="M157.2,378.2v8.3h0.3c2.1-3.4,4.7-6,8-7.5c3.3-1.6,6.7-2.4,10.1-2.4c4.4,0,7.9,0.6,10.7,1.8
			c2.8,1.2,5,2.8,6.6,4.9c1.6,2.1,2.7,4.7,3.4,7.7c0.6,3,1,6.4,1,10.1v36.5h-16.3v-33.5c0-4.9-0.8-8.6-2.3-11
			c-1.5-2.4-4.3-3.6-8.2-3.6c-4.4,0-7.7,1.3-9.6,4c-2,2.6-3,7-3,13v31.1h-16.3v-59.4H157.2z"/>
		<path fill="#FFFFFF" d="M237.9,378.2v10.9h-11.9v29.4c0,2.8,0.5,4.6,1.4,5.5c0.9,0.9,2.8,1.4,5.5,1.4c0.9,0,1.8,0,2.6-0.1
			c0.8-0.1,1.6-0.2,2.4-0.3v12.6c-1.4,0.2-2.9,0.4-4.6,0.5c-1.7,0.1-3.3,0.1-4.9,0.1c-2.5,0-4.9-0.2-7.2-0.5c-2.3-0.3-4.3-1-6-2
			c-1.7-1-3.1-2.4-4.1-4.2c-1-1.8-1.5-4.3-1.5-7.2v-35h-9.9v-10.9h9.9v-17.8h16.3v17.8H237.9z"/>
		<path fill="#FFFFFF" d="M244.3,387c1.7-2.5,3.8-4.6,6.4-6.1c2.6-1.5,5.5-2.6,8.8-3.3c3.3-0.7,6.5-1,9.8-1c3,0,6,0.2,9.1,0.6
			c3.1,0.4,5.9,1.2,8.4,2.5c2.5,1.2,4.6,2.9,6.2,5.1c1.6,2.2,2.4,5.1,2.4,8.7v30.9c0,2.7,0.2,5.2,0.5,7.7c0.3,2.5,0.8,4.3,1.6,5.5
			h-16.5c-0.3-0.9-0.6-1.9-0.7-2.8c-0.2-1-0.3-1.9-0.4-2.9c-2.6,2.7-5.7,4.6-9.2,5.6c-3.5,1.1-7.1,1.6-10.8,1.6
			c-2.8,0-5.5-0.3-7.9-1c-2.5-0.7-4.6-1.8-6.4-3.2c-1.8-1.5-3.3-3.3-4.3-5.5c-1-2.2-1.6-4.9-1.6-7.9c0-3.4,0.6-6.1,1.8-8.3
			c1.2-2.2,2.7-3.9,4.6-5.2c1.9-1.3,4-2.3,6.4-2.9c2.4-0.6,4.8-1.2,7.3-1.6c2.5-0.4,4.9-0.7,7.2-0.9c2.4-0.2,4.5-0.6,6.3-1
			c1.8-0.5,3.3-1.1,4.4-2c1.1-0.9,1.6-2.2,1.5-3.8c0-1.8-0.3-3.2-0.9-4.2c-0.6-1-1.3-1.8-2.3-2.4c-1-0.6-2.1-1-3.3-1.1
			c-1.3-0.2-2.6-0.3-4.1-0.3c-3.2,0-5.7,0.7-7.6,2.1c-1.8,1.4-2.9,3.7-3.2,6.9h-16.3C241.6,392.7,242.6,389.5,244.3,387z M276.5,410
			c-1,0.3-2.1,0.6-3.3,0.9c-1.2,0.2-2.4,0.4-3.7,0.6c-1.3,0.2-2.6,0.3-3.9,0.6c-1.2,0.2-2.4,0.5-3.6,0.9c-1.2,0.4-2.2,0.9-3.1,1.6
			c-0.9,0.7-1.6,1.5-2.1,2.5c-0.5,1-0.8,2.3-0.8,3.8c0,1.5,0.3,2.7,0.8,3.7c0.5,1,1.3,1.8,2.2,2.4c0.9,0.6,2,1,3.2,1.2
			c1.2,0.2,2.5,0.3,3.8,0.3c3.2,0,5.7-0.5,7.5-1.6c1.8-1.1,3.1-2.4,3.9-3.8c0.8-1.5,1.4-3,1.6-4.5c0.2-1.5,0.3-2.8,0.3-3.7v-6.1
			C278.4,409.2,277.5,409.7,276.5,410z"/>
		<path fill="#FFFFFF" d="M359.5,442c-0.7,3.1-2,5.9-4.2,8.6c-2.1,2.6-5.2,4.9-9.3,6.7c-4.1,1.8-9.5,2.8-16.3,2.8
			c-2.9,0-5.9-0.4-8.9-1.1c-3-0.7-5.8-1.9-8.3-3.4c-2.5-1.5-4.6-3.5-6.2-5.9c-1.6-2.4-2.6-5.3-2.8-8.7h16.2c0.8,3.1,2.3,5.2,4.5,6.4
			c2.2,1.2,4.8,1.8,7.7,1.8c4.6,0,7.9-1.4,10.1-4.1c2.1-2.8,3.1-6.2,3-10.5v-7.8h-0.2c-1.8,3.1-4.3,5.5-7.5,7
			c-3.3,1.5-6.7,2.2-10.3,2.2c-4.4,0-8.3-0.8-11.5-2.4c-3.2-1.6-5.9-3.7-7.9-6.4c-2.1-2.7-3.6-5.9-4.5-9.5c-1-3.6-1.4-7.5-1.4-11.5
			c0-3.8,0.6-7.5,1.7-11.1c1.1-3.6,2.7-6.7,4.9-9.4c2.1-2.7,4.8-4.9,8-6.5c3.2-1.6,6.8-2.4,11-2.4c3.9,0,7.3,0.7,10.3,2.2
			c2.9,1.5,5.4,3.9,7.4,7.4h0.2v-7.9h15.5v55.6C360.5,436.2,360.2,438.9,359.5,442z M337.2,422.2c1.8-0.9,3.2-2.1,4.4-3.7
			c1.1-1.5,2-3.3,2.6-5.2c0.6-2,0.9-4,0.9-6.1c0-2.4-0.2-4.8-0.7-6.9c-0.5-2.2-1.2-4.1-2.3-5.8c-1.1-1.7-2.5-3-4.3-4
			c-1.8-1-4-1.5-6.7-1.5c-2.3,0-4.3,0.5-5.9,1.4c-1.6,0.9-3,2.2-4.1,3.7c-1.1,1.6-1.9,3.4-2.4,5.4c-0.5,2-0.7,4.2-0.7,6.4
			c0,2.1,0.2,4.3,0.6,6.4c0.4,2.1,1.1,4,2.2,5.7c1,1.7,2.4,3.1,4.1,4.1c1.7,1.1,3.8,1.6,6.3,1.6
			C333.4,423.6,335.4,423.1,337.2,422.2z"/>
		<path fill="#FFFFFF" d="M386.5,423.4c2.5,2.4,6,3.6,10.6,3.6c3.3,0,6.1-0.8,8.5-2.5c2.4-1.6,3.8-3.4,4.4-5.2h14.4
			c-2.3,7.1-5.8,12.2-10.6,15.3c-4.7,3.1-10.5,4.6-17.2,4.6c-4.7,0-8.9-0.7-12.6-2.2c-3.8-1.5-6.9-3.6-9.5-6.4c-2.6-2.8-4.6-6-6-9.9
			c-1.4-3.8-2.1-8-2.1-12.6c0-4.4,0.7-8.6,2.2-12.4c1.5-3.8,3.5-7.1,6.2-9.9c2.7-2.8,5.9-5,9.6-6.6c3.7-1.6,7.8-2.4,12.3-2.4
			c5.1,0,9.5,1,13.2,2.9c3.8,2,6.8,4.6,9.2,7.9c2.4,3.3,4.2,7,5.2,11.3c1.1,4.2,1.5,8.6,1.1,13.2h-42.8
			C382.7,417.2,384,421,386.5,423.4z M404.9,392.1c-2-2.1-4.9-3.2-8.9-3.2c-2.6,0-4.8,0.4-6.5,1.3c-1.7,0.9-3.1,2-4.1,3.3
			c-1,1.3-1.8,2.7-2.2,4.1c-0.4,1.5-0.7,2.8-0.7,3.9H409C408.2,397.4,406.9,394.3,404.9,392.1z"/>
		<path fill="#FFFFFF" d="M449.1,419.9v17.7h-18v-17.7H449.1z"/>
		<path fill="#FFFFFF" d="M490.3,378.2v10.9h-11.9v29.4c0,2.8,0.5,4.6,1.4,5.5c0.9,0.9,2.8,1.4,5.5,1.4c0.9,0,1.8,0,2.6-0.1
			c0.8-0.1,1.6-0.2,2.4-0.3v12.6c-1.4,0.2-2.9,0.4-4.6,0.5c-1.7,0.1-3.3,0.1-4.9,0.1c-2.5,0-4.9-0.2-7.2-0.5c-2.3-0.3-4.3-1-6-2
			c-1.7-1-3.1-2.4-4.1-4.2c-1-1.8-1.5-4.3-1.5-7.2v-35h-9.9v-10.9h9.9v-17.8h16.3v17.8H490.3z"/>
		<path fill="#FFFFFF" d="M510.3,437.6l-20.3-59.4H507l12.5,40.6h0.2l12.5-40.6h16.2l-20.1,59.4H510.3z"/>
	</g>
</g>
</svg>
